<svg width="250" height="250" viewBox="0 0 250 250" fill="none" xmlns="http://www.w3.org/2000/svg">
<rect width="250" height="250" fill="#04060E"/>
<g clip-path="url(#clip0_514_1917)">
<path fill-rule="evenodd" clip-rule="evenodd" d="M205.422 94.6845C205.422 138.693 169.416 174.37 125 174.37C80.5855 174.37 44.5781 138.691 44.5781 94.6845C44.5781 50.6776 80.5848 15 125 15C169.416 15 205.422 50.6758 205.422 94.6845V94.6845ZM204.386 94.6845C204.386 51.242 168.845 16.026 125 16.026C81.1581 16.026 45.6147 51.242 45.6147 94.6845C45.6147 138.126 81.1581 173.343 125 173.343C168.846 173.343 204.386 138.126 204.386 94.6845V94.6845Z" fill="white"/>
<path d="M80.5585 98.9373C82.2624 93.2972 86.7028 88.8221 92.3511 87.0341C88.7904 85.1058 86.3711 81.3605 86.3711 77.0662C86.3711 76.9593 86.3848 76.8565 86.3866 76.7507H86.3711C86.3711 70.0122 82.0374 64.2721 75.9933 62.0801C74.148 64.7379 72.4946 67.5376 71.1025 70.4862C68.9973 74.9217 67.4387 79.6726 66.5179 84.6296C66.0791 86.9012 65.7928 89.2272 65.6385 91.5871C65.5761 92.5045 65.5451 93.4247 65.5264 94.3496C67.0572 93.5976 68.7734 93.1639 70.592 93.1639C74.8641 93.1639 78.5892 95.4964 80.5588 98.9369L80.5585 98.9373Z" fill="white"/>
<path d="M97.8267 67.9448C92.7528 67.9448 88.6221 72.0363 88.6221 77.0658C88.6221 82.0942 92.7528 86.186 97.8267 86.186C102.902 86.186 107.031 82.0942 107.031 77.0658C107.031 72.0363 102.902 67.9448 97.8267 67.9448Z" fill="white"/>
<path d="M79.7952 104.517C79.7952 99.4883 75.667 95.3965 70.5913 95.3965C68.7309 95.3965 66.9977 95.9509 65.5498 96.8976C65.6865 102.617 66.6459 108.136 68.3209 113.345C69.0489 113.529 69.8074 113.637 70.5916 113.637C75.6673 113.637 79.7956 109.545 79.7956 104.517H79.7952Z" fill="white"/>
<path d="M146.697 87.4189C143.137 85.4906 140.718 81.7471 140.718 77.451C140.718 77.0144 140.749 76.5854 140.796 76.1621C140.774 67.8295 134.136 61.0292 125.822 60.6108C125.555 60.6294 125.292 60.6509 125.02 60.6509C124.748 60.6509 124.482 60.6291 124.215 60.6108C115.889 61.0295 109.24 67.852 109.24 76.2053C109.26 76.49 109.282 76.7747 109.282 77.0662C109.282 81.3606 106.863 85.1058 103.303 87.0342C108.935 88.8168 113.368 93.2712 115.082 98.8884C117.061 95.475 120.768 93.1644 125.019 93.1644C129.307 93.1644 133.047 95.5136 135.01 98.9777C136.79 93.5009 141.165 89.1701 146.696 87.4189H146.697Z" fill="white"/>
<path d="M115.816 104.517C115.816 109.545 119.943 113.637 125.02 113.637C130.094 113.637 134.225 109.545 134.225 104.517C134.225 104.489 134.22 104.463 134.22 104.436H134.143C134.143 104.18 134.171 103.933 134.182 103.681C133.754 99.0427 129.81 95.396 125.02 95.396C120.167 95.396 116.188 99.1406 115.849 103.865C115.85 103.928 115.858 103.989 115.858 104.051H115.838C115.83 104.206 115.816 104.359 115.816 104.516V104.517Z" fill="white"/>
<path d="M170.204 104.517C170.204 109.545 174.333 113.637 179.409 113.637C180.193 113.637 180.95 113.529 181.678 113.345C183.352 108.138 184.314 102.621 184.452 96.8962C183.002 95.9509 181.271 95.3965 179.409 95.3965C174.333 95.3965 170.204 99.4883 170.204 104.517V104.517Z" fill="white"/>
<path d="M118.401 139.322V154.043C120.57 154.28 122.772 154.41 125.007 154.41C127.235 154.41 129.434 154.282 131.599 154.044V139.322H118.401Z" fill="white"/>
<path d="M167.952 104.517C167.952 104.489 167.956 104.463 167.956 104.436H167.952C167.952 95.8143 160.874 88.8017 152.174 88.8017C143.73 88.8017 136.835 95.4113 136.433 103.68C136.453 103.958 136.475 104.234 136.475 104.517C136.475 110.776 131.338 115.868 125.02 115.868C118.703 115.868 113.562 110.776 113.562 104.517C113.562 104.296 113.583 104.081 113.596 103.865C113.494 95.3302 106.463 88.417 97.8265 88.417C89.1263 88.417 82.0485 95.4296 82.0485 104.051H82.0236C82.0305 104.206 82.0485 104.359 82.0485 104.517C82.0485 110.776 76.9086 115.868 70.5908 115.868C70.1041 115.868 69.6245 115.828 69.1533 115.769C69.8344 117.607 70.5951 119.409 71.4529 121.156C74.153 126.689 77.7065 131.744 81.9428 136.146C89.3704 143.843 98.871 149.561 109.568 152.399C111.718 152.972 113.913 153.421 116.148 153.752V139.322H113.412C110.66 139.322 108.423 137.105 108.423 134.379C108.423 131.653 110.66 129.435 113.412 129.435C116.164 129.435 118.402 131.653 118.402 134.379V137.09H131.6V134.379C131.6 131.653 133.839 129.435 136.588 129.435C139.34 129.435 141.577 131.653 141.577 134.379C141.577 137.105 139.34 139.322 136.588 139.322H133.853V153.752C136.09 153.421 138.287 152.974 140.433 152.399C151.118 149.573 160.621 143.865 168.035 136.168C172.283 131.767 175.838 126.701 178.548 121.167C179.405 119.415 180.165 117.61 180.847 115.769C180.376 115.828 179.898 115.868 179.41 115.868C173.092 115.868 167.952 110.776 167.952 104.517H167.952H167.952Z" fill="white"/>
<path d="M116.147 134.379C116.147 132.859 114.947 131.667 113.412 131.667C111.877 131.667 110.674 132.859 110.674 134.379C110.674 135.9 111.877 137.09 113.412 137.09H116.147V134.379Z" fill="white"/>
<path d="M139.326 134.379C139.326 132.859 138.123 131.667 136.588 131.667C135.054 131.667 133.854 132.859 133.854 134.379V137.09H136.588C138.123 137.09 139.326 135.9 139.326 134.379Z" fill="white"/>
<path d="M125.822 58.3795C130.521 57.9744 134.225 54.0598 134.225 49.2999C134.225 44.2715 130.094 40.1797 125.02 40.1797C119.943 40.1797 115.816 44.2715 115.816 49.2999C115.816 54.0598 119.516 57.9744 124.217 58.3795C124.485 58.3684 124.748 58.3395 125.02 58.3395C125.292 58.3395 125.554 58.3687 125.822 58.3795V58.3795Z" fill="white"/>
<path d="M87.8321 71.5311C89.7959 68.0637 93.5384 65.7131 97.8263 65.7131C102.028 65.7131 105.697 67.9705 107.69 71.3185C109.336 65.602 113.777 61.0476 119.459 59.2171C115.948 57.2766 113.562 53.5606 113.562 49.2995C113.562 43.04 118.702 37.9483 125.02 37.9483C131.338 37.9483 136.475 43.0397 136.475 49.2995C136.475 53.561 134.093 57.2766 130.578 59.2171C136.335 61.0719 140.816 65.7235 142.408 71.5443C144.424 68.2852 148.041 66.0979 152.174 66.0979C156.415 66.0979 160.118 68.3988 162.096 71.8008C163.636 66.5237 167.564 62.2472 172.646 60.2006C169.184 55.6144 165.081 51.5301 160.445 48.1142C151.294 41.3732 140.113 37.1771 127.991 36.5898C127.991 36.5898 127.991 36.5898 127.979 36.5898C126.992 36.5355 126.005 36.5137 125.007 36.5137C123.998 36.5137 123.01 36.5355 122.023 36.5898H122.011C109.877 37.1885 98.6873 41.3842 89.5252 48.1357C84.9016 51.5458 80.8091 55.6226 77.3525 60.1999C82.3518 62.2115 86.2403 66.3744 87.8335 71.5311H87.8321Z" fill="white"/>
<path d="M163.63 76.7506H163.594C163.609 76.9835 163.63 77.2136 163.63 77.4508C163.63 81.7469 161.21 85.4904 157.65 87.4188C163.209 89.1796 167.607 93.5432 169.366 99.0604C171.318 95.5495 175.087 93.1642 179.41 93.1642C181.228 93.1642 182.946 93.5979 184.475 94.3499C184.456 93.4354 184.425 92.5262 184.362 91.6195C184.219 89.2275 183.913 86.8793 183.474 84.5748C182.551 79.6396 181.006 74.9223 178.909 70.5083C177.513 67.5518 175.858 64.7446 174.006 62.0811C167.964 64.2745 163.63 70.0124 163.63 76.751H163.63V76.7506Z" fill="white"/>
<path d="M161.379 77.4508C161.379 72.422 157.248 68.3306 152.173 68.3306C147.098 68.3306 142.969 72.4224 142.969 77.4508C142.969 82.4786 147.098 86.5704 152.173 86.5704C157.248 86.5704 161.379 82.4789 161.379 77.4508Z" fill="white"/>
<path d="M116.147 174.013H118.402V154.041C117.645 153.958 116.895 153.867 116.147 153.757V174.012V174.013Z" fill="white"/>
<path d="M131.6 174.013H133.853V153.757C133.106 153.868 132.355 153.958 131.6 154.041V174.013V174.013Z" fill="white"/>
<path d="M41.4332 219.141C40.7283 224.166 38.7832 228.104 35.609 230.957C32.4348 233.809 28.4212 235.236 23.5694 235.236C17.9074 235.236 13.3985 233.299 10.0429 229.427C6.67833 225.554 5 220.34 5 213.786C5 207.221 6.74467 201.998 10.234 198.116C13.732 194.224 18.4223 192.279 24.3034 192.279C28.9361 192.279 32.7495 193.46 35.7229 195.821C38.7068 198.182 40.499 201.441 41.0903 205.597H35.7139C35.1897 202.906 33.9314 200.818 31.9293 199.354C29.9272 197.89 27.3536 197.153 24.2075 197.153C20.0898 197.153 16.8197 198.654 14.3802 201.658C11.9401 204.661 10.7193 208.704 10.7193 213.786C10.7193 219.178 11.8539 223.297 14.1127 226.121C16.3715 228.945 19.651 230.361 23.9505 230.361C27.1247 230.361 29.7649 229.389 31.872 227.443C33.9689 225.488 35.3699 222.721 36.0564 219.141H41.4325L41.4332 219.141ZM55.3793 234.895C52.4532 234.895 50.1367 234.121 48.4216 232.572C46.7054 231.023 45.8477 228.926 45.8477 226.281C45.8477 223.627 46.6571 221.512 48.2687 219.944C49.8796 218.376 52.234 217.394 55.3224 217.007L62.1759 216.146C62.7293 216.099 63.2633 216.004 63.7681 215.873C64.4163 215.712 64.9214 215.372 65.2737 214.872C65.6274 214.371 65.8077 213.738 65.8077 212.983V212.728C65.8077 211.131 65.1973 209.885 63.9869 208.987C62.7762 208.091 61.0791 207.637 58.9159 207.637C56.8467 207.637 55.2358 208.109 54.0731 209.063C52.9103 210.008 52.2044 211.424 51.9664 213.304H47.3331C47.5714 210.065 48.7255 207.628 50.7932 206.003C52.8624 204.369 55.817 203.557 59.6683 203.557C63.3102 203.557 66.0842 204.341 67.9814 205.899C69.8876 207.457 70.8408 209.734 70.8408 212.728V229.021C70.8408 229.512 70.9933 229.918 71.3081 230.22C71.6131 230.531 72.0324 230.683 72.5567 230.683C72.7092 230.683 72.928 230.663 73.2143 230.626C73.5099 230.588 73.8247 230.532 74.1578 230.456V234.055C73.6718 234.243 73.157 234.394 72.6136 234.498C72.0699 234.611 71.6131 234.668 71.2414 234.668C69.3341 234.668 67.9522 234.149 67.0944 233.119C66.5316 232.439 66.1318 231.476 65.8931 230.219C65.5217 230.682 65.0927 231.126 64.606 231.551C62.0894 233.781 59.0103 234.894 55.3782 234.894V234.895L55.3793 234.895ZM65.808 222.362V219.141C64.8738 219.586 63.8445 219.887 62.7099 220.057L58.0967 220.719C55.675 221.049 53.9018 221.616 52.7867 222.4C51.6719 223.193 51.1091 224.261 51.1091 225.611C51.1091 227.283 51.5666 228.567 52.4813 229.465C53.387 230.362 54.6838 230.815 56.3614 230.815C59.0114 230.815 61.2421 230.098 63.0722 228.672C64.3208 227.67 65.1504 226.546 65.56 225.281C65.6274 225.045 65.6843 224.667 65.7222 224.147C65.7799 223.609 65.8084 223.014 65.8084 222.362H65.808ZM85.5499 208.657V234.102H80.5167V208.657H76.399V204.52H80.5167V199.477C80.5167 197.276 81.1646 195.623 82.4705 194.509C83.7767 193.404 85.7312 192.847 88.3426 192.847L90.525 192.932V197.409L88.5615 197.324C87.5988 197.324 86.8554 197.635 86.3308 198.259C85.8066 198.873 85.5495 199.761 85.5495 200.903V204.52H90.525V208.658H85.5495L85.5499 208.657ZM107.379 234.895C103.156 234.895 99.8299 233.564 97.4088 230.91C94.9871 228.246 93.7767 224.572 93.7767 219.878C93.7767 214.891 95.0538 210.924 97.6183 207.977C100.173 205.031 103.614 203.557 107.932 203.557C111.841 203.557 114.996 205.002 117.398 207.883C119.8 210.763 121.002 214.55 121.002 219.236L120.945 221.011H99.134C99.3341 223.968 100.021 226.216 101.174 227.765C102.584 229.644 104.815 230.589 107.866 230.589C109.782 230.589 111.459 230.061 112.889 228.993C114.319 227.926 115.196 226.575 115.511 224.923H120.487C119.743 228.162 118.246 230.637 116.016 232.336C113.786 234.046 110.907 234.896 107.379 234.896V234.895H107.379ZM115.777 216.988C115.635 214.24 114.938 212.105 113.709 210.575C112.355 208.884 110.363 208.034 107.732 208.034C105.091 208.034 102.975 209.007 101.392 210.961C100.144 212.491 99.3911 214.504 99.1337 216.988H115.777V216.988ZM105.501 200.497L110.592 192.506H116.769L109.39 200.497H105.501V200.497ZM161.428 235.236C155.46 235.236 150.637 233.262 146.948 229.324C143.259 225.375 141.419 220.2 141.419 213.787C141.419 207.355 143.259 202.17 146.948 198.211C150.637 194.254 155.46 192.28 161.428 192.28C167.424 192.28 172.257 194.254 175.936 198.211C179.615 202.169 181.455 207.355 181.455 213.787C181.455 220.2 179.615 225.375 175.936 229.324C172.257 233.263 167.424 235.236 161.428 235.236ZM161.428 230.362C165.708 230.362 169.168 228.842 171.799 225.791C174.421 222.74 175.737 218.735 175.737 213.786C175.737 208.818 174.421 204.804 171.799 201.743C169.168 198.683 165.708 197.153 161.428 197.153C157.157 197.153 153.706 198.683 151.076 201.743C148.454 204.804 147.138 208.818 147.138 213.786C147.138 218.735 148.454 222.74 151.076 225.791C153.707 228.842 157.157 230.362 161.428 230.362ZM187.394 234.102V204.464H192.18V208.819L193.295 207.345C195.469 204.823 198.195 203.558 201.465 203.558C204.763 203.558 207.299 204.446 209.081 206.221C210.864 207.997 211.76 210.518 211.76 213.787V234.103H206.726V215.468C206.726 212.861 206.221 210.981 205.211 209.829C204.191 208.668 202.551 208.091 200.292 208.091C197.871 208.091 195.955 208.998 194.544 210.821C193.133 212.643 192.428 215.109 192.428 218.216V234.103H187.394V234.102ZM231.378 234.895C227.155 234.895 223.828 233.564 221.407 230.91C218.986 228.246 217.775 224.572 217.775 219.878C217.775 214.891 219.053 210.924 221.617 207.977C224.171 205.031 227.613 203.557 231.931 203.557C235.839 203.557 238.995 205.002 241.397 207.883C243.799 210.763 245 214.55 245 219.236L244.943 221.011H223.132C223.333 223.968 224.019 226.216 225.172 227.765C226.583 229.644 228.814 230.589 231.864 230.589C233.78 230.589 235.458 230.061 236.888 228.993C238.318 227.926 239.195 226.575 239.509 224.923H244.485C243.742 228.162 242.245 230.637 240.015 232.336C237.784 234.046 234.905 234.896 231.378 234.896V234.895H231.378ZM239.776 216.988C239.633 214.24 238.937 212.105 237.707 210.575C236.353 208.884 234.361 208.034 231.73 208.034C229.09 208.034 226.974 209.007 225.391 210.961C224.143 212.491 223.39 214.504 223.132 216.988H239.776L239.776 216.988Z" fill="white"/>
</g>
<defs>
<clipPath id="clip0_514_1917">
<rect width="240" height="220.235" fill="white" transform="translate(5 15)"/>
</clipPath>
</defs>
</svg>
